<?xml version="1.0" encoding="utf-8"?>
<!-- Generator: Adobe Illustrator 19.2.1, SVG Export Plug-In . SVG Version: 6.00 Build 0)  -->
<svg version="1.1" id="Layer_1" xmlns="http://www.w3.org/2000/svg" xmlns:xlink="http://www.w3.org/1999/xlink" x="0px" y="0px"
	 viewBox="0 0 493.9 512" style="enable-background:new 0 0 493.9 512;" xml:space="preserve">
<style type="text/css">
	.st0{fill:#262626;}
</style>
<g id="vlgYUu.tif">
	<g id="XMLID_1_">
		<path id="XMLID_31_" class="st0" d="M16.1,512C4,507.5-0.3,498.6,0,485.9c0.6-23.1,0.5-46.3,0.1-69.4c-0.5-30.5,10.7-56.1,31.2-78
			c25.5-27.2,57.4-43.3,92.7-53.3c35.4-10.1,71.5-13,108.2-9.3c21.1,2.1,41.7,6.4,61.8,13.1c1.5,0.5,3,1.1,5,1.8
			c-1.5,1.3-2.5,2.3-3.6,3.3c-34.5,29.2-52.2,66.4-51.1,111.7c1,39.4,17.7,72.1,46,99.2c2.7,2.6,5.9,4.8,8.8,7.2
			C204.8,512,110.5,512,16.1,512z"/>
		<path id="XMLID_30_" class="st0" d="M215.1,0c7.4,1.6,15.1,2.6,22.3,5c49.5,15.9,79.3,49.8,87.3,100.9
			c10,64.4-34.4,125.6-98.2,137.8c-66.1,12.6-129.9-29.9-143.9-95.9c-14.3-67.4,30.7-133.7,99-145.9c2.9-0.5,5.7-1.3,8.6-1.9
			C198.5,0,206.8,0,215.1,0z"/>
		<path id="XMLID_27_" class="st0" d="M382.5,288.7c52.5,0.1,109.2,40.4,111.3,107.7c2,62.3-46.2,110.4-105.3,113.5
			c-69,3.6-115.8-55.2-116-109.3C272.2,337.1,322.4,288.9,382.5,288.7z M395.2,389.1c0-16.1,0-31.5,0-46.8c-7.7,0-14.8,0-22.4,0
			c0,15.8,0,31.1,0,46.9c-15.8,0-31.1,0-46.5,0c0,8.2,0,15.9,0,24.4c15.6,0,31,0,47,0c0,16,0,31.4,0,46.9c7.6,0,14.5,0,22.1,0
			c0-15.7,0-31,0-47c15.9,0,31.2,0,46.6,0c0-8.4,0-16.2,0-24.4C426.4,389.1,411.2,389.1,395.2,389.1z"/>
	</g>
</g>
</svg>
